<svg id="Ebene_1" data-name="Ebene 1" xmlns="http://www.w3.org/2000/svg" viewBox="0 0 15.02982 14.10963"><defs><style>.cls-1{fill:#34ffc8;}.cls-2{fill:#353535;}</style></defs><g id="Area_SIZE:LARGE_STATE:DEFAULT_STYLE:STYLE1_" data-name="Area SIZE:LARGE STATE:DEFAULT STYLE:STYLE1 "><path class="cls-1" d="M7.51491.40323h0A6.65159,6.65159,0,0,1,14.1665,7.05482h0A6.65158,6.65158,0,0,1,7.51491,13.7064h0A6.65158,6.65158,0,0,1,.86333,7.05482h0A6.65158,6.65158,0,0,1,7.51491.40323Z"/></g><g id="Icon"><g id="Path"><path class="cls-2" d="M8.7026,8.24266a2.69237,2.69237,0,0,1-1.03838-.25449,2.286,2.286,0,0,0-.86207-.22063,1.2872,1.2872,0,0,0-.7883.17376.24414.24414,0,0,1-.25751.03944.23671.23671,0,0,1-.142-.2132V4.91686a.23741.23741,0,0,1,.0696-.168,1.56866,1.56866,0,0,1,1.11819-.30715,2.69241,2.69241,0,0,1,1.03838.25449,2.28593,2.28593,0,0,0,.86207.22062,1.28726,1.28726,0,0,0,.7883-.17375.24319.24319,0,0,1,.25751-.03944.2367.2367,0,0,1,.142.21319V7.76754a.23737.23737,0,0,1-.06959.168A1.56858,1.56858,0,0,1,8.7026,8.24266ZM6.80215,7.29243a2.69241,2.69241,0,0,1,1.03838.25449,2.28593,2.28593,0,0,0,.86207.22062,1.6178,1.6178,0,0,0,.71267-.12829V5.29849A2.43182,2.43182,0,0,1,8.7026,5.392a2.69237,2.69237,0,0,1-1.03838-.25449,2.286,2.286,0,0,0-.86207-.22063,1.618,1.618,0,0,0-.71267.12829V7.38592A2.43177,2.43177,0,0,1,6.80215,7.29243Z"/></g><g id="Line"><path class="cls-2" d="M5.85192,9.668a.23742.23742,0,0,1-.23756-.23756V7.76754a.23756.23756,0,0,1,.47512,0v1.6629A.23742.23742,0,0,1,5.85192,9.668Z"/></g></g></svg>