<svg id="Capa_1" data-name="Capa 1" xmlns="http://www.w3.org/2000/svg" viewBox="0 0 24.86641 24.85683"><defs><style>.cls-1{fill:#353535;}</style></defs><path class="cls-1" d="M24.11669,12.46685a8.66726,8.66726,0,0,0-2.19508-8.456,8.83835,8.83835,0,0,0-6.19188-2.53758,7.35843,7.35843,0,0,0-2.35433.36937C9.75467.04856,6.58294.1301,4.83973,1.87235,3.57622,3.13586,3.24619,5.12275,3.72205,7.40417l-.7867.7867a1.88014,1.88014,0,0,0-.49024-.072A1.95013,1.95013,0,1,0,4.29288,9.54648L4.35333,9.486a21.08531,21.08531,0,0,0,4.21458,6.50464L5.81543,18.74316a1.94848,1.94848,0,0,0-.49216-.071A1.95013,1.95013,0,1,0,7.171,20.09973l2.75248-2.75152a21.10075,21.10075,0,0,0,6.497,4.22034l-.05277.05277a1.95013,1.95013,0,1,0,1.35657,1.35657l.77615-.77614c2.292.48353,4.29037.15734,5.55868-1.11193C25.80233,19.34949,25.85222,16.05688,24.11669,12.46685ZM20.62836,5.305C23.1621,7.83781,23.0249,11.78761,21.7,13.11252a3.00229,3.00229,0,0,1-2.14615,1.02079c-1.33738,0-3.0307-.98721-4.89862-2.8561-4.43716-4.43812-2.5443-6.331-1.83243-7.04381a4.21051,4.21051,0,0,1,2.90694-.93157A6.96584,6.96584,0,0,1,20.62836,5.305Z" transform="translate(-0.52633 -0.53104)"/></svg>